<?xml version="1.0" encoding="UTF-8"?>
<svg version="1.1" xmlns="http://www.w3.org/2000/svg" width="512" height="512">
<path d="M0 0 C1.43108786 -0.00345878 2.86217306 -0.00822482 4.29325271 -0.01418173 C8.21666278 -0.02669066 12.13985357 -0.02052195 16.06326437 -0.01122308 C20.29774547 -0.00443273 24.53218898 -0.01491358 28.7666626 -0.02316284 C37.05726906 -0.03650113 45.34779403 -0.03362241 53.63840368 -0.02492492 C60.37401167 -0.01815099 67.1095968 -0.01723039 73.84520721 -0.02049637 C74.80366761 -0.02095607 75.762128 -0.02141577 76.74963264 -0.0218894 C78.69664672 -0.02284856 80.64366079 -0.0238212 82.59067485 -0.02480717 C100.84532462 -0.03336087 119.09992919 -0.02352628 137.35457155 -0.00740607 C153.02772444 0.00600567 168.7008107 0.00366193 184.3739624 -0.01016235 C202.5692968 -0.02620374 220.76459161 -0.03254594 238.95993209 -0.02332556 C240.89857848 -0.02236989 242.83722487 -0.02142678 244.77587128 -0.02049637 C245.72976638 -0.02003354 246.68366148 -0.01957072 247.6664625 -0.01909386 C254.39827966 -0.01650028 261.13007178 -0.0208827 267.86188507 -0.02793503 C276.05920334 -0.03633385 284.25643538 -0.03410372 292.45374373 -0.0180928 C296.63841295 -0.01018952 300.82293823 -0.00715341 305.00760651 -0.01704025 C308.83425991 -0.02594483 312.66063519 -0.02112496 316.48726317 -0.0051076 C317.87538604 -0.00174182 319.26353215 -0.00349391 320.65164021 -0.01073496 C322.53097998 -0.01979059 324.41038508 -0.00875433 326.28970718 0.00342751 C327.33583939 0.00391456 328.38197159 0.00440162 329.45980477 0.00490344 C332.04290771 0.38095093 332.04290771 0.38095093 333.90248275 1.65454614 C335.04290771 3.38095093 335.04290771 3.38095093 335.04290771 7.38095093 C341.64290771 7.38095093 348.24290771 7.38095093 355.04290771 7.38095093 C355.37290771 5.73095093 355.70290771 4.08095093 356.04290771 2.38095093 C359.08343095 0.35393543 359.6808568 0.12902283 363.09480286 0.10679626 C364.32881332 0.09183357 364.32881332 0.09183357 365.5877533 0.0765686 C366.48698013 0.07590393 367.38620697 0.07523926 368.31268311 0.07455444 C369.26266174 0.06623093 370.21264038 0.05790741 371.19140625 0.04933167 C374.34116692 0.02518195 377.49072043 0.01645123 380.64056396 0.00985718 C382.83192507 0.00089103 385.02328555 -0.00823082 387.21464539 -0.01750183 C391.81553637 -0.0340104 396.41635446 -0.04169472 401.01727295 -0.04458618 C406.89615709 -0.04995623 412.7743496 -0.08757173 418.65303898 -0.13333035 C423.18369503 -0.16317024 427.71418643 -0.17031133 432.24493217 -0.17131233 C434.41095568 -0.17550479 436.57698013 -0.1878997 438.74290657 -0.20882988 C441.78490001 -0.23587266 444.82531587 -0.23087887 447.86737061 -0.21841431 C448.75242783 -0.2332486 449.63748505 -0.24808289 450.54936218 -0.2633667 C458.10349547 -0.17581356 464.59381875 2.19990749 470.20042515 7.37079716 C477.32323728 14.91446438 478.48766252 21.69679951 478.43058777 31.75408936 C478.43866608 33.46250234 478.43866608 33.46250234 478.44690758 35.20542872 C478.46120482 39.01844085 478.4540788 42.83110668 478.44696045 46.64413452 C478.45101998 49.37930704 478.45952643 52.11446192 478.46775818 54.84962463 C478.4849389 61.50592861 478.48578766 68.16213815 478.48054527 74.81845854 C478.47650075 80.23012371 478.47795049 85.641761 478.48329353 91.05342484 C478.48404196 91.82420369 478.48479038 92.59498254 478.48556148 93.38911832 C478.48709299 94.95505901 478.48863134 96.52099969 478.49017645 98.08694036 C478.50389902 112.76650573 478.49846566 127.44601778 478.48699123 142.12558194 C478.47706054 155.54685206 478.48999709 168.9679843 478.51392543 182.38923316 C478.53832513 196.1790539 478.54792207 209.96881044 478.5412727 223.75865233 C478.53778222 231.49703393 478.54000109 239.23530952 478.55752373 246.97367477 C478.57225668 253.56164546 478.57286704 260.14943548 478.55545282 266.73740266 C478.54694885 270.09664562 478.54695154 273.45530147 478.56010437 276.81456947 C478.57329185 280.46129886 478.56178491 284.10715339 478.54411316 287.75384521 C478.55371817 288.80842938 478.56332317 289.86301354 478.57321924 290.9495548 C478.49172044 299.13299082 476.40231134 304.87555126 471.85540771 311.63095093 C465.82865918 317.52377172 459.22431776 320.50062372 450.83197021 320.48641968 C449.83423584 320.5012439 448.83650146 320.51606812 447.80853271 320.53134155 C445.72273431 320.55598718 443.63661467 320.56134302 441.55072021 320.54696655 C440.55040771 320.56823608 439.55009521 320.58950562 438.51947021 320.61141968 C437.61277588 320.61552856 436.70608154 320.61963745 435.77191162 320.62387085 C431.75891158 321.73715705 429.42412422 323.99483664 427.04290771 327.38095093 C426.21736718 330.23901908 426.2432293 332.94549929 426.30169678 335.90560913 C426.29427963 336.74058929 426.28686249 337.57556946 426.27922058 338.43585205 C426.26137377 341.18516107 426.28514428 343.93249182 426.30853271 346.68173218 C426.3023549 348.602169 426.29325619 350.52259844 426.28137207 352.44300842 C426.25665037 357.49496916 426.26586571 362.54626827 426.28393555 367.59823608 C426.30734051 375.67247223 426.28003276 383.74666439 426.25121307 391.82085228 C426.24612473 394.63091643 426.2559122 397.44062003 426.26806641 400.25065613 C426.26787765 401.98980719 426.26738474 403.72895826 426.26654053 405.46810913 C426.27380661 406.23983963 426.28107269 407.01157013 426.28855896 407.8066864 C426.26468688 414.85314499 425.80793809 422.40206715 420.79290771 427.75595093 C420.23087646 428.3824353 419.66884521 429.00891968 419.08978271 429.65438843 C413.71315688 434.18963388 408.95111889 434.81948426 402.21298218 434.77536011 C401.3355364 434.78145121 400.45809062 434.78754231 399.55405557 434.793818 C396.62003148 434.81043912 393.6864418 434.80567342 390.75238037 434.8008728 C388.64627126 434.80821364 386.54016617 434.81679992 384.43406677 434.82653809 C378.71708949 434.84876127 373.0002563 434.85168435 367.28324175 434.84979057 C362.50936616 434.84967091 357.73552115 434.85823345 352.96165407 434.86656809 C341.6983533 434.88580513 330.43512666 434.88868489 319.17181396 434.88192749 C307.55535926 434.87528642 295.93922206 434.89815325 284.32283175 434.93524122 C274.34642889 434.96593653 264.37012817 434.97729842 254.39367902 434.97340441 C248.43651542 434.97133673 242.47959887 434.97681938 236.52248001 435.001297 C230.91958845 435.02355847 225.31721314 435.02169084 219.71431923 435.00136948 C217.66004727 434.9979584 215.6057406 435.00305266 213.55151558 435.01735306 C210.7426766 435.03555477 207.93558726 435.02278965 205.12680054 435.00241089 C204.3176421 435.01492874 203.50848367 435.02744658 202.67480528 435.04034376 C196.67876552 434.94734696 192.73031479 433.09134925 188.04290771 429.38095093 C182.9282197 423.99706881 181.79404959 419.32317588 181.76824951 411.99203491 C181.76313858 411.26621216 181.75802765 410.5403894 181.75276184 409.79257202 C181.73891144 407.40397803 181.73981867 405.01567393 181.74212646 402.62704468 C181.73823797 400.96225376 181.73390298 399.29746382 181.72914124 397.63267517 C181.72168954 394.14842507 181.72196336 390.66427633 181.72723389 387.18002319 C181.73303733 382.71544567 181.71607155 378.25128182 181.69288921 373.78677273 C181.67816058 370.35096309 181.6772788 366.91525341 181.68039894 363.4794178 C181.67988562 361.8331832 181.67464591 360.18694301 181.66458702 358.54073906 C181.65225196 356.24037574 181.65899521 353.94082272 181.67059326 351.64047241 C181.66996384 350.33206894 181.66933441 349.02366547 181.66868591 347.6756134 C182.0644583 344.19121879 182.54645658 342.79422289 185.04290771 340.38095093 C186.03290771 340.05095093 187.02290771 339.72095093 188.04290771 339.38095093 C188.37290771 333.11095093 188.70290771 326.84095093 189.04290771 320.38095093 C185.29900192 320.3942746 185.29900192 320.3942746 181.47946167 320.40786743 C157.96620242 320.48962926 134.45296192 320.54914484 110.93959236 320.58819962 C98.8509268 320.60881268 86.76236564 320.63690943 74.67376709 320.68270874 C64.13564956 320.72261477 53.59760765 320.74839286 43.05941665 320.75730491 C37.48104544 320.76251323 31.90289056 320.77472882 26.32458878 320.80387115 C21.06987047 320.83109959 15.81545682 320.83938085 10.56067467 320.83338165 C8.63623967 320.83447856 6.71179408 320.84238797 4.78742027 320.85777283 C-6.6204726 320.94447235 -15.47413609 320.66214842 -25.26959229 314.19345093 C-30.45822139 308.76349024 -34.07304388 302.28267119 -34.09410667 294.68249416 C-34.09918122 293.71082064 -34.10425576 292.73914712 -34.10948408 291.73802894 C-34.10998183 290.66801409 -34.11047959 289.59799924 -34.11099243 288.49555969 C-34.11537469 287.36074097 -34.11975694 286.22592224 -34.12427199 285.05671507 C-34.13768363 281.23372109 -34.1438442 277.41075017 -34.14996338 273.58773804 C-34.15733513 270.85478435 -34.16612622 268.1218355 -34.17474365 265.3888855 C-34.19926754 257.17200375 -34.21389577 248.95511595 -34.22680372 240.73820886 C-34.23051598 238.4169293 -34.23448919 236.09565035 -34.23855639 233.77437139 C-34.26379569 219.35673032 -34.28584688 204.9390883 -34.29828453 190.52143002 C-34.30121419 187.18171625 -34.30417586 183.84200251 -34.30718994 180.50228882 C-34.30793599 179.67222691 -34.30868204 178.84216499 -34.3094507 177.98694969 C-34.32209867 164.54668952 -34.35531398 151.10656181 -34.39699177 137.66636353 C-34.43944054 123.86424792 -34.46298305 110.06220007 -34.46820509 96.26001936 C-34.47161613 88.51199523 -34.48333461 80.764178 -34.51630783 73.01621819 C-34.54435017 66.41609845 -34.5552895 59.81622804 -34.54411237 53.21605336 C-34.53893588 49.85050949 -34.54448736 46.48590906 -34.56657791 43.12037086 C-34.58926293 39.46488947 -34.58097535 35.81071613 -34.56509399 32.15522766 C-34.57897608 31.10082786 -34.59285817 30.04642806 -34.60716093 28.96007675 C-34.52110754 20.90227217 -32.52933562 14.24305772 -26.96727979 8.22967857 C-18.66182876 0.36020874 -11.02820345 -0.05793143 0 0 Z " fill="#010101" transform="translate(33.95709228515625,38.619049072265625)"/>
<path d="M0 0 C159.06 0 318.12 0 482 0 C482 218 482 218 479 224 C475.69362 227.06085674 472.51990567 227.96699012 468.0625 228.25 C467.051875 228.1675 466.04125 228.085 465 228 C465.15726562 227.43539062 465.31453125 226.87078125 465.4765625 226.2890625 C467.15331219 218.95641087 466.27733922 212.76240192 462.609375 206.19921875 C458.87636356 201.09804049 454.36659283 199.24520231 448.34667969 197.94140625 C447.53350281 197.76424072 446.72032593 197.5870752 445.88250732 197.40454102 C445.26127991 197.27104248 444.64005249 197.13754395 444 197 C444.00037703 196.40807484 444.00075405 195.81614967 444.0011425 195.20628738 C444.00828152 180.75637733 443.98216459 166.3068045 443.9197216 151.85702896 C443.89031281 144.86896257 443.87187027 137.88119838 443.87988281 130.89306641 C443.88759075 124.14304794 443.86389327 117.39370855 443.82144547 110.64382172 C443.81034454 108.0747996 443.80958665 105.50571033 443.81957626 102.93668365 C444.16395206 82.23847556 444.16395206 82.23847556 434.25390625 64.703125 C433.36574219 63.89359375 432.47757812 63.0840625 431.5625 62.25 C430.58924954 61.33665189 429.61789161 60.42128292 428.6484375 59.50390625 C427.77445312 58.67761719 426.90046875 57.85132813 426 57 C424.87447709 55.7480417 423.76768105 54.47878242 422.6875 53.1875 C413.72690794 42.80527554 405.28582603 33.42860868 392 29 C389.66990274 28.89905643 387.33696958 28.86057913 385.00469971 28.85282898 C384.28837018 28.84915229 383.57204065 28.8454756 382.83400416 28.8416875 C380.42741483 28.83065146 378.02086867 28.82680697 375.61425781 28.82299805 C373.89120344 28.81673335 372.16815042 28.81008654 370.44509888 28.80308533 C364.78111716 28.7820438 359.11713516 28.77168306 353.453125 28.76171875 C351.50338476 28.75767127 349.55364467 28.75355435 347.60390472 28.74936867 C338.44423154 28.73031703 329.28456641 28.71608577 320.12487721 28.7077567 C309.55112806 28.69798308 298.97758819 28.67166018 288.40391278 28.63125581 C280.23140957 28.60109833 272.05896635 28.58628818 263.88640857 28.58297569 C259.00514364 28.58062482 254.12410228 28.5716596 249.24289703 28.54651451 C244.64966488 28.52323518 240.05680354 28.51899998 235.46352768 28.52927589 C233.77971793 28.5297714 232.09588994 28.5234467 230.41213608 28.50971985 C228.10872623 28.49199521 225.80664639 28.49910864 223.50323486 28.51225281 C221.57193159 28.50867028 221.57193159 28.50867028 219.60161209 28.50501537 C214.27554805 29.23699865 209.57928979 31.61087062 206.1875 35.9375 C202.48197614 41.12523341 201.70417852 45.29750355 201.7215271 51.58662415 C201.7128385 52.72009278 201.7128385 52.72009278 201.70397437 53.87645978 C201.68699434 56.40376732 201.6840996 58.93089202 201.68115234 61.45825195 C201.67185279 63.27177884 201.66168407 65.08530144 201.65071106 66.89881897 C201.62340012 71.81984447 201.60825837 76.74084132 201.59528303 81.66192269 C201.57965732 86.80558831 201.5528653 91.94919538 201.5272522 97.09281921 C201.48045453 106.8320217 201.44371518 116.57123519 201.41057932 126.31049269 C201.37236494 137.39870471 201.32295297 148.48685795 201.27259517 159.57502043 C201.16926061 182.3833034 201.08000513 205.19162412 201 228 C176.21762556 228.09344096 151.43527753 228.16397812 126.65276241 228.20724869 C115.1458084 228.22787398 103.63896384 228.25599407 92.13208008 228.30175781 C82.10269061 228.34162643 72.07338041 228.36743305 62.0439139 228.37635398 C56.73335333 228.38156865 51.42301955 228.39382457 46.11253166 228.42292023 C41.11307987 228.45008958 36.11394808 228.45844185 31.11442947 228.45243073 C29.28064929 228.45353027 27.4468583 228.46147506 25.61314201 228.4768219 C23.1059969 228.49677387 20.60005417 228.49192064 18.09288025 228.48101807 C17.37009901 228.49266943 16.64731778 228.5043208 15.90263408 228.51632524 C10.40064074 228.45181597 7.34221524 227.20024971 3 224 C-30.39494306 157.21011387 0 74.67336279 0 0 Z " fill="#E8F7F8" transform="translate(15,116)"/>
<path d="M0 0 C1.22722778 -0.04314331 2.45445557 -0.08628662 3.71887207 -0.1307373 C5.08189747 -0.16318474 6.44493516 -0.19511926 7.8079834 -0.22659302 C9.24245884 -0.26995283 10.67690692 -0.314226 12.11132812 -0.35934448 C25.2855808 -0.75225188 38.4675584 -0.94840209 51.64652252 -1.10287285 C61.36398061 -1.21888874 71.07079779 -1.42239193 80.78359079 -1.74651611 C87.63987921 -1.96740067 94.49332455 -2.0807304 101.35302114 -2.11995041 C105.43568705 -2.14623193 109.50525188 -2.21594555 113.5839386 -2.40395737 C129.34244488 -3.09850041 141.92749759 -2.84859643 154.06438398 8.20289838 C176.8250856 30.12532975 176.8250856 30.12532975 177.24659729 41.90235901 C177.24949704 43.31323122 177.24683652 44.72412126 177.23986816 46.13497925 C177.24001419 46.9059494 177.24016022 47.67691956 177.24031067 48.47125244 C177.23961396 51.01975314 177.23183287 53.56818077 177.22399902 56.1166687 C177.22213398 57.88358012 177.22071049 59.65049205 177.2197113 61.41740417 C177.21589289 66.06823148 177.20606836 70.71902756 177.19500732 75.36984253 C177.18477869 80.11552508 177.18021057 84.86121268 177.1751709 89.60690308 C177.1644455 98.91876575 177.14737717 108.23060526 177.12634277 117.54244995 C175.84224628 117.54603248 175.84224628 117.54603248 174.53220844 117.54968739 C153.70909653 117.60880509 132.88610066 117.68433445 112.06311512 117.77816486 C101.99329995 117.82314403 91.92352032 117.86255381 81.8536377 117.8888855 C73.0774543 117.91184839 64.30138316 117.94522727 55.52528876 117.99115151 C50.87774624 118.01510679 46.23031505 118.03382045 41.58271217 118.04006386 C37.20865208 118.04610429 32.83487693 118.06606634 28.46092224 118.09672546 C26.85532292 118.10552241 25.24968639 118.10922484 23.64406395 118.10745811 C21.45157301 118.10580728 19.25995271 118.12248707 17.06758118 118.14372253 C15.84067472 118.1483315 14.61376825 118.15294046 13.34968281 118.15768909 C9.80615119 118.5806703 7.91321656 119.33404256 5.12634277 121.54244995 C3.87795896 124.94773991 3.87795896 124.94773991 4.12634277 128.54244995 C5.63324446 130.87389447 5.63324446 130.87389447 8.12634277 132.54244995 C11.34860813 133.14914379 11.34860813 133.14914379 15.02325439 133.06143188 C15.71679244 133.06893314 16.41033049 133.07643439 17.12488484 133.08416295 C19.44826597 133.10445921 21.77067298 133.09633427 24.09411621 133.08834839 C25.75971951 133.09708241 27.42531441 133.10756759 29.09089661 133.11967468 C33.61330933 133.14757649 38.13544884 133.15093845 42.65793514 133.1499548 C47.38389672 133.15308031 52.10973459 133.17869097 56.83563232 133.20193481 C65.78511239 133.24252607 74.73451954 133.26284286 83.6840775 133.27590871 C93.87267553 133.29176817 104.06114927 133.33017934 114.24967527 133.370502 C135.20852638 133.45294372 156.16736527 133.50620918 177.12634277 133.54244995 C177.12634277 138.49244995 177.12634277 143.44244995 177.12634277 148.54244995 C175.03272903 148.54387497 172.9391153 148.54529999 170.78205872 148.54676819 C151.07859021 148.56254978 131.37531981 148.60582991 111.67196369 148.67454052 C101.54157919 148.70920439 91.41133096 148.73454787 81.28088379 148.73800659 C72.45191765 148.74104454 63.62319412 148.76151222 54.79432172 148.80297452 C50.11875189 148.82432161 45.44352711 148.83689639 40.7679081 148.82860374 C36.36743728 148.82107437 31.96766622 148.83684059 27.56732368 148.8705101 C25.95204989 148.87875688 24.33670668 148.87847738 22.72143936 148.86904716 C20.51531498 148.85744212 18.31149053 148.87651217 16.10554504 148.9032135 C14.87126424 148.90597888 13.63698343 148.90874426 12.36530018 148.91159344 C8.21370633 149.7202055 6.69475311 151.24408245 4.12634277 154.54244995 C3.87304493 157.68955297 3.87304493 157.68955297 5.12634277 160.54244995 C7.49371849 162.93446475 8.8719319 163.51103462 12.24225235 163.92721081 C14.09505625 163.93412426 14.09505625 163.93412426 15.98529053 163.94117737 C17.01947227 163.95114761 17.01947227 163.95114761 18.07454658 163.96131927 C20.38395437 163.97996654 22.69284486 163.97734292 25.00231934 163.974823 C26.65806816 163.98383913 28.3138103 163.99416599 29.96954346 164.00570679 C34.46504854 164.03332045 38.96042713 164.04256722 43.45600605 164.04856086 C48.15392904 164.05793317 52.85175712 164.08413562 57.54962158 164.10856628 C66.44596057 164.15226645 75.34228118 164.18079181 84.23869491 164.20388967 C94.36682359 164.23092249 104.49485697 164.27483517 114.62291765 164.32017839 C135.45734309 164.41307505 156.29179433 164.48413404 177.12634277 164.54244995 C177.12634277 169.49244995 177.12634277 174.44244995 177.12634277 179.54244995 C175.01798035 179.54609558 172.90961792 179.54974121 170.73736572 179.55349731 C150.90115269 179.5896905 131.06509149 179.64784832 111.22900009 179.72635269 C101.03022747 179.76618531 90.83153248 179.79855632 80.63269043 179.81344604 C71.7447935 179.8264407 62.85706709 179.85334928 53.96926618 179.89706302 C49.26191834 179.91972714 44.5547812 179.93535768 39.84737396 179.9343338 C35.41825935 179.9335901 30.98961137 179.95142349 26.56061745 179.98361778 C24.93363637 179.99214927 23.30660314 179.99384476 21.6796093 179.98825264 C19.46027525 179.9816396 17.24243768 179.99946551 15.02325439 180.02346802 C13.78067745 180.02715519 12.53810051 180.03084236 11.25786972 180.03464127 C8.05228972 180.3083586 8.05228972 180.3083586 5.69137955 182.34832382 C3.76770859 184.58527092 3.76770859 184.58527092 4.18884277 188.16744995 C4.80142727 191.79761919 4.80142727 191.79761919 8.12634277 193.54244995 C11.13987521 193.85603229 11.13987521 193.85603229 14.63725281 193.82092285 C15.63340094 193.82961145 15.63340094 193.82961145 16.64967328 193.83847558 C18.87916868 193.85550658 21.10845746 193.85835469 23.3380127 193.86129761 C24.9344992 193.87059366 26.53098083 193.88076185 28.12745667 193.89173889 C32.46597327 193.9190894 36.80445731 193.93420323 41.14303756 193.94716692 C45.67545933 193.9627754 50.20781438 193.98957286 54.7401886 194.01519775 C63.32489412 194.06202604 71.90961214 194.09875052 80.4943803 194.13187063 C90.26697741 194.17006343 100.03950758 194.21948101 109.81204832 194.26985478 C129.91676374 194.37323486 150.02152152 194.46247548 170.12634277 194.54244995 C168.77167388 196.17499964 167.40670959 197.79966732 166.00306129 199.3903017 C164.70319987 200.88093253 163.44973244 202.41281925 162.23587608 203.97428417 C158.03084505 208.92019294 155.00404302 211.10271578 148.44558716 211.63578796 C145.80847012 211.66736081 143.20018689 211.65129512 140.56628418 211.59249878 C139.11170733 211.59327545 137.65712796 211.59807614 136.20257568 211.60656738 C133.08681405 211.61622489 129.97297684 211.5977907 126.85747147 211.55695534 C121.93251315 211.49260238 117.00876349 211.49190852 112.08346558 211.49940491 C104.29900147 211.50378826 96.51541483 211.46593667 88.73117292 211.40983647 C74.77408981 211.30997122 60.8168774 211.26845031 46.85945261 211.26309603 C41.9617928 211.25935678 37.06495021 211.2325454 32.16750646 211.18701804 C29.12781534 211.16214545 26.0882213 211.15324347 23.04843903 211.14825821 C21.63704399 211.14239429 20.22565855 211.12957766 18.8143959 211.10937691 C16.89149638 211.082667 14.96828103 211.0826204 13.04519653 211.08403015 C11.96824839 211.07602796 10.89130024 211.06802576 9.7817173 211.05978107 C7.017205 211.30575493 7.017205 211.30575493 5.25250816 213.37969494 C3.88226691 215.58894892 3.88226691 215.58894892 4.18884277 218.60494995 C5.2893009 222.05305208 6.061312 222.73735183 9.12634277 224.54244995 C11.6835355 224.99776148 11.6835355 224.99776148 14.50469971 224.94117737 C15.59562424 224.95371552 16.68654877 224.96625366 17.81053162 224.97917175 C19.59832787 224.97701912 19.59832787 224.97701912 21.42224121 224.974823 C23.31043327 224.99011047 23.31043327 224.99011047 25.23677063 225.00570679 C28.68479387 225.03328726 32.13265219 225.04256263 35.58077145 225.04856086 C39.18564834 225.05794187 42.79040191 225.08414501 46.39520264 225.10856628 C53.21970188 225.15224258 60.0441772 225.18078254 66.8687737 225.20388967 C74.63904343 225.23093533 82.40918918 225.27484719 90.1793704 225.32017839 C106.1616308 225.41304081 122.14391455 225.48471416 138.12634277 225.54244995 C135.05004111 231.8198906 131.53846629 237.36611257 125.12634277 240.54244995 C116.528538 242.59776522 107.36761229 241.86384833 98.59899902 241.6947937 C96.00114571 241.68655083 93.40326995 241.68375134 90.80540466 241.68614197 C84.6862388 241.68106855 78.56917897 241.63022536 72.45053715 241.55387455 C60.82835332 241.41044952 49.20577665 241.36775623 37.5828228 241.33908272 C33.7666598 241.32000695 29.95171064 241.27152644 26.13587952 241.21894836 C23.80596405 241.20229087 21.47604362 241.18630841 19.14611816 241.17111206 C17.55255745 241.13764427 17.55255745 241.13764427 15.92680359 241.10350037 C10.3505564 241.01830197 10.3505564 241.01830197 5.43370056 243.33909607 C3.81063949 245.63517411 3.81063949 245.63517411 4.18884277 249.16744995 C4.80142727 252.79761919 4.80142727 252.79761919 8.12634277 254.54244995 C10.21763152 254.8522801 10.21763152 254.8522801 12.54924011 254.82092285 C13.45367859 254.83208633 14.35811707 254.84324982 15.28996277 254.85475159 C16.27970596 254.85691177 17.26944916 254.85907196 18.28918457 254.86129761 C19.3332547 254.87134323 20.37732483 254.88138885 21.45303345 254.89173889 C24.91053711 254.92267614 28.36796297 254.93963543 31.82556152 254.95651245 C34.22024714 254.9752156 36.6149261 254.99478837 39.00959778 255.01519775 C45.31751595 255.06661496 51.62545551 255.10618939 57.93347168 255.14334106 C64.368259 255.18332063 70.80295661 255.23444052 77.2376709 255.28463745 C89.86716412 255.38151027 102.49670873 255.46625684 115.12634277 255.54244995 C114.81440813 257.2717187 114.50176915 259.0008604 114.18884277 260.72994995 C114.01481934 261.69287964 113.8407959 262.65580933 113.66149902 263.6479187 C113.17396928 266.28484967 112.65963172 268.91444045 112.12634277 271.54244995 C110.81755661 271.54609558 109.50877045 271.54974121 108.1603241 271.55349731 C95.843695 271.59039204 83.5273172 271.64810406 71.21087933 271.72635269 C64.87840912 271.76591079 58.54607971 271.79805839 52.21350098 271.81344604 C46.1055095 271.82855769 39.9979049 271.86290542 33.89008522 271.91075897 C31.55645924 271.92562956 29.22277805 271.9334942 26.88910484 271.9343338 C23.62751077 271.93668811 20.36699934 271.96364442 17.10559082 271.99655151 C16.1345491 271.99152115 15.16350739 271.98649078 14.16304016 271.98130798 C9.14231989 271.92322508 9.14231989 271.92322508 4.99873352 274.38516235 C3.73694089 277.50538068 4.11264397 279.36619369 5.12634277 282.54244995 C7.5230496 285.01352973 8.91987448 285.5186093 12.37163544 285.91718006 C14.31620007 285.91692845 14.31620007 285.91692845 16.30004883 285.91667175 C17.02343303 285.92064616 17.74681724 285.92462057 18.49212217 285.92871541 C20.91661946 285.93834167 23.34053371 285.92651865 25.76501465 285.9147644 C27.50293699 285.91719227 29.24085794 285.92091153 30.97877502 285.92582703 C35.699805 285.93524043 40.42062781 285.9258068 45.14164162 285.9124949 C50.07921001 285.90118738 55.01676809 285.90528737 59.9543457 285.90724182 C68.24657581 285.90812502 76.53872421 285.89703904 84.83093262 285.87863159 C94.42171081 285.85746359 104.01236928 285.85395395 113.6031661 285.86019355 C122.82425106 285.86588579 132.04529381 285.86024319 141.26637268 285.84902 C145.1929248 285.84437216 149.11945112 285.84350097 153.04600525 285.84560585 C157.66873016 285.84748778 162.291333 285.83939213 166.91403008 285.82354546 C168.61198357 285.81929846 170.30994943 285.81845484 172.00790596 285.82123566 C174.32295073 285.82445223 176.63762958 285.81538905 178.95263672 285.80314636 C180.24901314 285.80109349 181.54538956 285.79904062 182.88105011 285.79692554 C185.91961361 285.55866036 187.63858157 285.25469634 190.12634277 283.54244995 C190.93378842 281.7020339 190.93378842 281.7020339 191.06384277 279.60494995 C191.15536621 278.91530151 191.24688965 278.22565308 191.34118652 277.5151062 C191.27641858 275.49895484 191.27641858 275.49895484 190.05505371 273.95114136 C187.14101867 271.82278919 184.62410897 272.10362885 181.05212402 272.0307312 C180.36829147 272.01278 179.68445892 271.9948288 178.97990417 271.97633362 C176.79961277 271.9222292 174.61954022 271.88833655 172.43884277 271.85494995 C170.95899461 271.82177676 169.47917532 271.78728708 167.99938965 271.75143433 C164.37525108 271.66650471 160.75103626 271.59969361 157.12634277 271.54244995 C160.28924075 264.77259741 166.51524541 259.52175626 172.31384277 254.91744995 C174.58999285 252.99536766 176.32135359 251.22985347 178.22790527 248.97994995 C182.3912982 244.17330709 186.82059773 239.66439923 191.31384277 235.16744995 C192.10726074 234.36178589 192.90067871 233.55612183 193.71813965 232.7260437 C194.48577637 231.95647339 195.25341309 231.18690308 196.04431152 230.39401245 C196.7329126 229.70130249 197.42151367 229.00859253 198.13098145 228.29489136 C200.06677814 226.59476304 201.81673258 225.63915726 204.12634277 224.54244995 C204.19580475 233.87823434 204.24913456 243.21392999 204.28177929 252.54991627 C204.29744589 256.8848412 204.31870211 261.21958955 204.35266113 265.55441284 C204.38521942 269.73653083 204.4031883 273.9184788 204.4109745 278.10071373 C204.41652439 279.69755417 204.42736183 281.29438514 204.44353294 282.89115334 C204.46526086 285.12514089 204.46831173 287.35842284 204.46691895 289.59249878 C204.4769117 291.50111443 204.4769117 291.50111443 204.48710632 293.44828796 C204.12634277 296.54244995 204.12634277 296.54244995 203.11623859 298.21160507 C199.95911425 300.32309389 196.59923967 299.95790209 192.92724609 299.93013 C191.65863322 299.93820831 191.65863322 299.93820831 190.3643918 299.94644982 C187.51992175 299.96079986 184.67591245 299.95360841 181.8314209 299.94650269 C179.79645919 299.95220253 177.76150067 299.95916529 175.72654724 299.96730042 C170.19153016 299.98528849 164.6566711 299.98405296 159.12163353 299.97835803 C154.50649951 299.97527465 149.89139623 299.98134905 145.27626657 299.98739678 C134.39244452 300.00145865 123.50870093 299.9998666 112.62487793 299.98849487 C101.38276023 299.97700863 90.14088093 299.99109415 78.89879465 300.01789135 C69.25798561 300.04001437 59.6172516 300.0466935 49.97641897 300.04081494 C44.21335233 300.03743642 38.45043858 300.03991977 32.68739319 300.05706596 C27.27010066 300.0724792 21.85316271 300.06864225 16.43588448 300.04976082 C14.44402194 300.04605946 12.45213345 300.04922808 10.46029472 300.05964661 C7.7482615 300.0727527 5.03742021 300.06140215 2.32543945 300.0436554 C1.53079804 300.0532604 0.73615663 300.06286541 -0.08256483 300.07276148 C-5.37629376 300.00111889 -5.37629376 300.00111889 -7.86244202 297.70839119 C-9.30823392 294.61162181 -9.25278584 292.02997202 -9.25842285 288.61837769 C-9.26379562 287.93010895 -9.2691684 287.24184021 -9.27470398 286.53271484 C-9.28446669 285.04261007 -9.28743067 283.55244855 -9.28434753 282.06231499 C-9.27986599 279.7043483 -9.29387707 277.34713068 -9.31274414 274.98924255 C-9.35575008 269.13559692 -9.36678592 263.28196807 -9.37896729 257.42819214 C-9.39048577 252.47738309 -9.41401389 247.52691619 -9.45365906 242.57625008 C-9.46725368 240.25229253 -9.46305476 237.92879449 -9.45825195 235.60481262 C-9.46759025 234.18224496 -9.47775849 232.75968243 -9.4888916 231.33712769 C-9.49094604 230.09454697 -9.49300049 228.85196625 -9.49511719 227.57173157 C-9.63298098 224.58923194 -9.63298098 224.58923194 -11.14770508 222.68028259 C-13.11312911 221.24778407 -13.11312911 221.24778407 -16.87365723 220.54244995 C-16.87365723 213.94244995 -16.87365723 207.34244995 -16.87365723 200.54244995 C-14.89365723 199.55244995 -12.91365723 198.56244995 -10.87365723 197.54244995 C-9.3567285 194.5085925 -9.73081645 191.36124122 -9.73562622 188.0330658 C-9.73280494 187.24943159 -9.72998366 186.46579738 -9.72707689 185.65841669 C-9.71870757 183.01827012 -9.71739066 180.37816536 -9.71594238 177.73800659 C-9.71127595 175.85097637 -9.70613268 173.96394728 -9.70054626 172.07691956 C-9.68925229 168.00630359 -9.68082447 163.935695 -9.67442703 159.86506844 C-9.66376751 153.43291095 -9.64352906 147.00080645 -9.62130737 140.56867981 C-9.5593113 122.27586283 -9.50532977 103.9830489 -9.47229004 85.69015503 C-9.45397201 75.59261952 -9.42507291 65.49517259 -9.38428533 55.39770216 C-9.36317019 50.05048772 -9.34775168 44.70338512 -9.34547806 39.35612679 C-9.34333794 34.3287377 -9.32753402 29.30158159 -9.30108833 24.27426338 C-9.29386987 22.42593163 -9.29180662 20.57757172 -9.29519081 18.72922897 C-9.29906429 16.21214637 -9.28470067 13.69581572 -9.26565552 11.17881775 C-9.27118521 10.44185844 -9.27671491 9.70489913 -9.28241217 8.94560772 C-9.24570191 6.14846959 -9.1662467 4.03373332 -7.71626091 1.59908009 C-5.09816724 0.09774982 -3.0135002 0.09111917 0 0 Z " fill="#FCDF76" transform="translate(239.8736572265625,158.45755004882813)"/>
<path d="M0 0 C6.6 0 13.2 0 20 0 C20.99 1.98 21.98 3.96 23 6 C26.33776852 7.66888426 30.09038175 7.14409604 33.76074219 7.1418457 C34.66823212 7.14532013 35.57572205 7.14879456 36.51071167 7.15237427 C38.48596328 7.159738 40.46122321 7.16508008 42.43648529 7.16866493 C45.56362144 7.17581956 48.69059969 7.19147916 51.81768799 7.21000671 C60.71046772 7.26251976 69.60316235 7.31044887 78.49609375 7.32592773 C83.93208112 7.33601099 89.36767359 7.3653467 94.80350494 7.40724754 C96.87508405 7.41955976 98.94671894 7.4246784 101.01833344 7.42244911 C103.91987705 7.4200954 106.82028904 7.44226903 109.72167969 7.4699707 C110.57593536 7.46336929 111.43019104 7.45676788 112.31033325 7.44996643 C117.65745057 7.53368737 120.82583816 8.35126004 125 12 C132.56345704 24.60576173 128 41.29928195 128 56 C-31.06 56 -190.12 56 -354 56 C-354 17 -354 17 -350 11 C-346.34120318 8.15389005 -343.67150305 7.62521033 -339.0860281 7.62641239 C-337.89418516 7.61942265 -336.70234221 7.6124329 -335.47438282 7.60523134 C-333.51593822 7.61659543 -333.51593822 7.61659543 -331.51792908 7.62818909 C-330.11402949 7.62561424 -328.71013182 7.62171304 -327.30623919 7.6165995 C-323.44864349 7.60631831 -319.59127628 7.61463369 -315.73369157 7.62589633 C-311.57346207 7.63474281 -307.41326514 7.62624882 -303.2530365 7.61968994 C-296.04433558 7.61052984 -288.83569831 7.61186481 -281.62699699 7.61987495 C-271.20004733 7.63109704 -260.77318854 7.62207427 -250.34624679 7.60731315 C-233.42378523 7.5835361 -216.50133487 7.57017473 -199.57885742 7.56616211 C-198.05945901 7.56579481 -198.05945901 7.56579481 -196.50936569 7.56542008 C-185.20434335 7.56287333 -173.89932187 7.56230782 -162.59429932 7.56335449 C-158.49312337 7.56368752 -154.39194743 7.56397292 -150.29077148 7.56420898 C-149.27876822 7.56427177 -148.26676495 7.56433456 -147.22409492 7.56439925 C-130.36410785 7.56500355 -113.50417255 7.55014512 -96.64420706 7.52337593 C-86.24023255 7.50754731 -75.83642487 7.50533733 -65.43244851 7.52050995 C-58.30783162 7.52995467 -51.18331553 7.52525126 -44.05871051 7.50929613 C-39.94477029 7.50057614 -35.8310976 7.49852262 -31.71717072 7.51382256 C-27.9538468 7.52770737 -24.19100837 7.52336162 -20.4277112 7.50430154 C-18.41575631 7.49895575 -16.40377921 7.51342612 -14.39187378 7.52851206 C-12.60802098 7.51411582 -12.60802098 7.51411582 -10.78813076 7.49942875 C-9.24521568 7.49958975 -9.24521568 7.49958975 -7.6711306 7.49975401 C-4.27535043 6.864422 -3.11448544 5.68085058 -1 3 C-0.67 2.01 -0.34 1.02 0 0 Z " fill="#9EABB9" transform="translate(369,46)"/>
<path d="M0 0 C1.38005511 -0.01649662 2.76002701 -0.04370388 4.13964844 -0.08203125 C17.93744129 -0.46268285 17.93744129 -0.46268285 23.94604492 3.96435547 C27.13652434 7.01406264 29.0129619 10.20172751 30.39575195 14.35009766 C30.39575195 16.14176432 30.39575195 17.93343099 30.39575195 19.72509766 C30.67035954 23.17142285 30.82377115 24.77457151 33.28637695 27.25244141 C36.66149355 29.26968824 39.08355185 30.60004053 43.02075195 29.85009766 C43.80450195 29.35509766 44.58825195 28.86009766 45.39575195 28.35009766 C51.21660367 25.32773234 55.13466977 24.88229817 61.39575195 26.35009766 C71.96202091 30.07936905 77.92410642 42.56120366 82.4934082 52.10693359 C84.54557528 57.2084788 84.58825164 62.04661219 83.39575195 67.35009766 C80.63916367 73.28736473 75.75843386 76.77497639 70.39575195 80.35009766 C69.80982562 83.4662032 69.80982562 83.4662032 69.70825195 86.97509766 C69.64250977 88.16361328 69.57676758 89.35212891 69.5090332 90.57666016 C69.47165039 91.49189453 69.43426758 92.40712891 69.39575195 93.35009766 C70.14598633 93.62466797 70.8962207 93.89923828 71.66918945 94.18212891 C76.97180772 96.45359433 80.51045121 99.77940279 83.33325195 104.78759766 C85.50121253 112.05664195 84.20638113 116.81053225 80.77075195 123.22509766 C80.4061084 123.92546143 80.04146484 124.6258252 79.66577148 125.34741211 C74.87541819 134.41464154 70.23672147 143.08753082 60.39575195 147.35009766 C54.76083117 148.41013226 50.86599 147.24229943 45.89575195 144.53759766 C42.80781779 143.01972579 41.15756177 142.23727831 37.73168945 142.74462891 C34.97905365 143.98113039 33.33895593 145.0337257 31.39575195 147.35009766 C30.686543 150.15647664 30.58316473 152.66978851 30.5480957 155.56103516 C30.24891462 161.03835035 27.8174432 164.96486003 23.95825195 168.72509766 C17.31924285 172.93520099 11.22546278 172.72253193 3.53076172 172.72070312 C1.46734157 172.72507838 -0.59393972 172.76144436 -2.65698242 172.79931641 C-3.96860352 172.80318359 -5.28022461 172.80705078 -6.6315918 172.81103516 C-7.82518311 172.81925293 -9.01877441 172.8274707 -10.24853516 172.8359375 C-15.39815918 172.09037535 -19.20001377 169.32196339 -22.41674805 165.28759766 C-25.54872493 161.08180013 -25.72172893 158.27581943 -25.66674805 153.16259766 C-25.65772461 152.07591797 -25.64870117 150.98923828 -25.6394043 149.86962891 C-25.62780273 149.03818359 -25.61620117 148.20673828 -25.60424805 147.35009766 C-26.51174805 147.08197266 -27.41924805 146.81384766 -28.35424805 146.53759766 C-31.60424805 145.35009766 -31.60424805 145.35009766 -33.66674805 143.60009766 C-34.30612305 143.18759766 -34.94549805 142.77509766 -35.60424805 142.35009766 C-37.99987572 142.93819201 -37.99987572 142.93819201 -40.60424805 144.35009766 C-46.31664493 146.85680346 -51.35540142 148.66699164 -57.6081543 146.72900391 C-68.42690473 142.10999281 -73.39790256 129.20379153 -78.60424805 119.35009766 C-80.26719069 114.36126973 -80.6087917 109.13831882 -78.8034668 104.12744141 C-76.43083443 99.89583936 -74.0373231 97.90369043 -69.79174805 95.60009766 C-66.78030405 93.75780251 -65.78777144 92.93032008 -64.7097168 89.52197266 C-64.46179937 86.10995652 -64.57117238 83.6162408 -65.60424805 80.35009766 C-67.67296 78.320418 -69.7278348 77.13487694 -72.26831055 75.75244141 C-76.1692538 73.41057079 -77.98489773 70.53154105 -79.60424805 66.35009766 C-80.86990556 57.95451407 -78.69350302 52.14722242 -74.41674805 45.03759766 C-73.93399414 44.18359375 -73.45124023 43.32958984 -72.95385742 42.44970703 C-65.43377272 29.39807009 -65.43377272 29.39807009 -58.60424805 26.35009766 C-52.51035501 25.48400018 -46.55979586 25.40959936 -41.10424805 28.47509766 C-37.84859313 30.70176826 -37.84859313 30.70176826 -34.91674805 29.78759766 C-34.15362305 29.31322266 -33.39049805 28.83884766 -32.60424805 28.35009766 C-27.64270959 25.35009766 -27.64270959 25.35009766 -25.60424805 25.35009766 C-25.6506543 24.48126953 -25.69706055 23.61244141 -25.74487305 22.71728516 C-26.04016615 13.28899819 -26.04016615 13.28899819 -23.97924805 8.85009766 C-16.39241532 0.86395794 -10.87080021 0.09500877 0 0 Z " fill="#9DAAB8" transform="translate(119.604248046875,143.64990234375)"/>
<path d="M0 0 C3.16634636 -0.11760715 6.33212074 -0.18771024 9.5 -0.25 C10.386875 -0.28351563 11.27375 -0.31703125 12.1875 -0.3515625 C20.06241012 -0.46737 24.97092022 1.40939259 30.94140625 6.515625 C31.80636719 7.41796875 32.67132813 8.3203125 33.5625 9.25 C34.03300781 9.73597656 34.50351562 10.22195312 34.98828125 10.72265625 C38.14838933 14.01298856 41.15676028 17.41875907 44.109375 20.89453125 C47.40758566 24.56753858 50.99614973 27.95997132 54.546875 31.38671875 C60.31172437 37.52793568 60.49565132 42.31148141 60.6262207 50.48120117 C60.65557205 51.64295364 60.6849234 52.80470612 60.71516418 54.00166321 C60.80492779 57.8486612 60.869174 61.69534499 60.92578125 65.54296875 C60.94549673 66.86188929 60.96521221 68.18080982 60.98552513 69.53969765 C61.06468408 75.09250852 61.13363202 80.64531561 61.17901325 86.19851208 C61.24447155 94.11190336 61.36975322 102.01911881 61.57932597 109.93004245 C61.72217417 115.51589916 61.79395916 121.10011493 61.81560391 126.68773824 C61.83033673 130.01490098 61.88336222 133.3296386 61.99483681 136.6557827 C62.39320838 149.22617491 62.58723981 159.56203165 53.86924267 169.35198689 C43.77241583 179.41406761 43.77241583 179.41406761 36.90962219 179.45207214 C34.97435921 179.22829643 34.97435921 179.22829643 33 179 C33 174.05 33 169.1 33 164 C30.90638626 164.00888245 28.81277252 164.01776489 26.65571594 164.0269165 C6.95238726 164.10860292 -12.75091914 164.16815879 -32.45437908 164.20724869 C-42.58480702 164.22788042 -52.71511076 164.25601271 -62.84545898 164.30175781 C-71.67431384 164.34160684 -80.50307877 164.36742837 -89.33202106 164.37635398 C-94.0076055 164.381572 -98.68293264 164.39384894 -103.35843468 164.42292023 C-107.75872538 164.45005879 -112.15865264 164.45844817 -116.55901909 164.45243073 C-118.17433395 164.45353166 -119.78966089 164.46149498 -121.40490341 164.4768219 C-123.61064821 164.49672637 -125.81502115 164.4919388 -128.02079773 164.48101807 C-129.87221894 164.48654882 -129.87221894 164.48654882 -131.76104259 164.49219131 C-135.62899316 163.90441833 -137.27149586 162.75837902 -140 160 C-141.0625 157.0625 -141.0625 157.0625 -141 154 C-139.22960551 151.25283613 -137.93708156 149.46854078 -135 148 C-132.79551506 147.90547921 -130.58807104 147.87810129 -128.38156128 147.87974548 C-127.69381563 147.87889106 -127.00606999 147.87803663 -126.29748356 147.87715632 C-123.98198768 147.87550295 -121.66656348 147.88102055 -119.35107422 147.88647461 C-117.69562787 147.88675654 -116.04018139 147.88659864 -114.38473511 147.8860321 C-109.88085407 147.88574435 -105.37699948 147.89163752 -100.8731246 147.89860606 C-96.16990384 147.90484327 -91.46668251 147.90544369 -86.76345825 147.90663147 C-77.85286161 147.9097437 -68.9422772 147.91795564 -60.03168595 147.92798096 C-49.8891498 147.93914545 -39.74661309 147.9446534 -29.60407233 147.94967639 C-8.73604121 147.96013833 12.1319782 147.97793634 33 148 C33 143.05 33 138.1 33 133 C30.89385818 133.01110306 28.78771637 133.02220612 26.61775208 133.03364563 C6.79671429 133.13575273 -13.02428886 133.21019797 -32.84553051 133.25906086 C-43.0365302 133.28485082 -53.227337 133.32001652 -63.41821289 133.37719727 C-72.29980592 133.42700793 -81.18125927 133.45928525 -90.0629881 133.47044247 C-94.76658086 133.4769652 -99.46977399 133.49231182 -104.17323875 133.52865028 C-108.59984733 133.5625729 -113.02589143 133.57306058 -117.45261765 133.56553841 C-119.07761896 133.56691463 -120.70263903 133.5768697 -122.327528 133.59602737 C-124.54665703 133.62090916 -126.76365549 133.61492568 -128.98283386 133.60127258 C-130.22448901 133.60588155 -131.46614416 133.61049051 -132.74542522 133.61523914 C-136.92693363 132.82477408 -138.42849938 131.33053093 -141 128 C-141.1875 124.4375 -141.1875 124.4375 -140 121 C-135.61884454 117.36448379 -132.57419912 116.50203248 -126.93850708 116.51898193 C-125.90788739 116.51385538 -125.90788739 116.51385538 -124.8564471 116.50862527 C-122.56678932 116.50206535 -120.27831829 116.52398914 -117.98876953 116.54589844 C-116.34258553 116.54702733 -114.69639951 116.54639223 -113.05021667 116.54412842 C-108.58979328 116.54298198 -104.12980121 116.56647983 -99.66947794 116.59442425 C-95.0050059 116.61944963 -90.34052369 116.6217808 -85.67599487 116.62652588 C-76.8468988 116.63895231 -68.01800113 116.67176944 -59.18899238 116.71192384 C-49.13586819 116.75665188 -39.08273447 116.77863119 -29.02953553 116.79870558 C-8.35291301 116.84050234 12.32353099 116.91084797 33 117 C32.96188268 106.83762642 32.90243312 96.67561952 32.81609726 86.51353455 C32.7766663 81.79432834 32.74445638 77.0753075 32.72900391 72.35595703 C32.71380839 67.79752443 32.67931172 63.2396016 32.63169098 58.68139648 C32.61690697 56.94641563 32.6089607 55.21136199 32.60811615 53.47631836 C32.60573567 51.03705129 32.57857155 48.59918077 32.54589844 46.16015625 C32.5509288 45.45021011 32.55595917 44.74026398 32.56114197 44.00880432 C32.24236143 28.52631563 16.38306081 17.2810385 6.30053711 7.33666992 C5.4885083 6.53334229 4.67647949 5.73001465 3.83984375 4.90234375 C3.10113037 4.17523193 2.36241699 3.44812012 1.60131836 2.69897461 C0 1 0 1 0 0 Z " fill="#F3C858" transform="translate(384,159)"/>
<path d="M0 0 C1.38005511 -0.01649662 2.76002701 -0.04370388 4.13964844 -0.08203125 C17.93744129 -0.46268285 17.93744129 -0.46268285 23.94604492 3.96435547 C27.13652434 7.01406264 29.0129619 10.20172751 30.39575195 14.35009766 C30.39575195 16.14176432 30.39575195 17.93343099 30.39575195 19.72509766 C30.67035954 23.17142285 30.82377115 24.77457151 33.28637695 27.25244141 C36.66149355 29.26968824 39.08355185 30.60004053 43.02075195 29.85009766 C43.80450195 29.35509766 44.58825195 28.86009766 45.39575195 28.35009766 C51.21660367 25.32773234 55.13466977 24.88229817 61.39575195 26.35009766 C71.96202091 30.07936905 77.92410642 42.56120366 82.4934082 52.10693359 C84.54557528 57.2084788 84.58825164 62.04661219 83.39575195 67.35009766 C80.63916367 73.28736473 75.75843386 76.77497639 70.39575195 80.35009766 C69.80982562 83.4662032 69.80982562 83.4662032 69.70825195 86.97509766 C69.64250977 88.16361328 69.57676758 89.35212891 69.5090332 90.57666016 C69.47165039 91.49189453 69.43426758 92.40712891 69.39575195 93.35009766 C70.14598633 93.62466797 70.8962207 93.89923828 71.66918945 94.18212891 C76.97180772 96.45359433 80.51045121 99.77940279 83.33325195 104.78759766 C85.50121253 112.05664195 84.20638113 116.81053225 80.77075195 123.22509766 C80.4061084 123.92546143 80.04146484 124.6258252 79.66577148 125.34741211 C74.87541819 134.41464154 70.23672147 143.08753082 60.39575195 147.35009766 C54.76083117 148.41013226 50.86599 147.24229943 45.89575195 144.53759766 C42.80781779 143.01972579 41.15756177 142.23727831 37.73168945 142.74462891 C34.97905365 143.98113039 33.33895593 145.0337257 31.39575195 147.35009766 C30.686543 150.15647664 30.58316473 152.66978851 30.5480957 155.56103516 C30.24891462 161.03835035 27.8174432 164.96486003 23.95825195 168.72509766 C17.31924285 172.93520099 11.22546278 172.72253193 3.53076172 172.72070312 C1.46734157 172.72507838 -0.59393972 172.76144436 -2.65698242 172.79931641 C-3.96860352 172.80318359 -5.28022461 172.80705078 -6.6315918 172.81103516 C-7.82518311 172.81925293 -9.01877441 172.8274707 -10.24853516 172.8359375 C-15.39815918 172.09037535 -19.20001377 169.32196339 -22.41674805 165.28759766 C-25.54872493 161.08180013 -25.72172893 158.27581943 -25.66674805 153.16259766 C-25.65772461 152.07591797 -25.64870117 150.98923828 -25.6394043 149.86962891 C-25.62780273 149.03818359 -25.61620117 148.20673828 -25.60424805 147.35009766 C-26.51174805 147.08197266 -27.41924805 146.81384766 -28.35424805 146.53759766 C-31.60424805 145.35009766 -31.60424805 145.35009766 -33.66674805 143.60009766 C-34.30612305 143.18759766 -34.94549805 142.77509766 -35.60424805 142.35009766 C-37.99987572 142.93819201 -37.99987572 142.93819201 -40.60424805 144.35009766 C-46.31664493 146.85680346 -51.35540142 148.66699164 -57.6081543 146.72900391 C-68.42690473 142.10999281 -73.39790256 129.20379153 -78.60424805 119.35009766 C-80.26719069 114.36126973 -80.6087917 109.13831882 -78.8034668 104.12744141 C-76.43083443 99.89583936 -74.0373231 97.90369043 -69.79174805 95.60009766 C-66.78030405 93.75780251 -65.78777144 92.93032008 -64.7097168 89.52197266 C-64.46179937 86.10995652 -64.57117238 83.6162408 -65.60424805 80.35009766 C-67.67296 78.320418 -69.7278348 77.13487694 -72.26831055 75.75244141 C-76.1692538 73.41057079 -77.98489773 70.53154105 -79.60424805 66.35009766 C-80.86990556 57.95451407 -78.69350302 52.14722242 -74.41674805 45.03759766 C-73.93399414 44.18359375 -73.45124023 43.32958984 -72.95385742 42.44970703 C-65.43377272 29.39807009 -65.43377272 29.39807009 -58.60424805 26.35009766 C-52.51035501 25.48400018 -46.55979586 25.40959936 -41.10424805 28.47509766 C-37.84859313 30.70176826 -37.84859313 30.70176826 -34.91674805 29.78759766 C-34.15362305 29.31322266 -33.39049805 28.83884766 -32.60424805 28.35009766 C-27.64270959 25.35009766 -27.64270959 25.35009766 -25.60424805 25.35009766 C-25.6506543 24.48126953 -25.69706055 23.61244141 -25.74487305 22.71728516 C-26.04016615 13.28899819 -26.04016615 13.28899819 -23.97924805 8.85009766 C-16.39241532 0.86395794 -10.87080021 0.09500877 0 0 Z M-10.60424805 16.35009766 C-10.8078845 19.68747287 -10.95074935 23.01756065 -11.03393555 26.35986328 C-11.16666509 29.3822255 -11.38504701 31.89620434 -12.7097168 34.63916016 C-15.3520213 37.02540629 -18.33766003 38.44116405 -21.54174805 39.91259766 C-26.37742631 42.15103504 -26.37742631 42.15103504 -30.84643555 45.03369141 C-33.81049491 47.25344253 -36.00636389 46.82195132 -39.60424805 46.35009766 C-41.94283903 45.17672796 -44.11281395 43.88572385 -46.2956543 42.44384766 C-49.48676549 40.93198449 -51.11834961 40.58880949 -54.60424805 41.35009766 C-56.88496299 43.80431533 -58.39094641 46.60331835 -59.97924805 49.53759766 C-60.42913086 50.30652344 -60.87901367 51.07544922 -61.3425293 51.86767578 C-63.07252392 54.93066017 -64.44748788 57.71774308 -65.2956543 61.13916016 C-64.18436348 64.69277937 -61.26969719 65.87077785 -58.16674805 67.53759766 C-51.70181571 71.15496232 -51.70181571 71.15496232 -50.60424805 73.35009766 C-50.30679837 77.63583471 -50.32619866 81.9302547 -50.29174805 86.22509766 C-50.26274414 87.42263672 -50.23374023 88.62017578 -50.20385742 89.85400391 C-50.19547852 91.00513672 -50.18709961 92.15626953 -50.1784668 93.34228516 C-50.16388428 94.39786621 -50.14930176 95.45344727 -50.13427734 96.54101562 C-50.72059737 100.04553417 -51.88545611 101.14291983 -54.60424805 103.35009766 C-56.9231259 104.87393167 -59.28639592 106.28445295 -61.6784668 107.68994141 C-63.71857581 109.23036611 -63.71857581 109.23036611 -64.6628418 111.49462891 C-64.56940082 116.04831908 -62.29658634 119.27229374 -59.97924805 123.10009766 C-59.53967773 123.87998047 -59.10010742 124.65986328 -58.6472168 125.46337891 C-56.12586016 129.80643598 -56.12586016 129.80643598 -52.07299805 132.54931641 C-48.03529208 132.22348887 -45.53276562 129.97971054 -42.29956055 127.69775391 C-38.76964342 125.93279534 -36.51229323 125.88147618 -32.60424805 126.35009766 C-29.5769043 127.95947266 -29.5769043 127.95947266 -26.66674805 130.10009766 C-23.15977579 132.59374878 -19.81194415 134.88959158 -15.91674805 136.72509766 C-12.60424805 138.35009766 -12.60424805 138.35009766 -11.60424805 140.35009766 C-11.33983993 143.79107548 -11.15964892 147.22558266 -10.9987793 150.67236328 C-11.13785518 154.31499219 -11.13785518 154.31499219 -9.60424805 157.35009766 C-5.7983666 157.60218487 -1.97999349 157.53532109 1.83325195 157.53759766 C2.90897461 157.54984375 3.98469727 157.56208984 5.09301758 157.57470703 C6.11975586 157.57664062 7.14649414 157.57857422 8.2043457 157.58056641 C9.15108154 157.58467529 10.09781738 157.58878418 11.07324219 157.59301758 C13.58939539 157.57626272 13.58939539 157.57626272 15.39575195 155.35009766 C15.68742876 151.95704724 15.81108858 148.60625373 15.87426758 145.20361328 C16.07548596 139.84924132 16.07548596 139.84924132 17.5637207 137.52978516 C21.00119331 135.31631666 24.69437901 133.6834496 28.38793945 131.94775391 C31.45775689 130.44071747 31.45775689 130.44071747 34.0480957 128.19775391 C36.75661006 126.06609452 38.7060937 125.67022038 42.1418457 125.80712891 C45.94514498 126.72334832 48.92760764 128.90829568 52.09887695 131.13525391 C54.27440555 132.52845514 54.27440555 132.52845514 56.5090332 132.28369141 C60.42236348 130.3472816 62.21753815 125.97860176 64.39575195 122.35009766 C65.1537207 121.13386719 65.1537207 121.13386719 65.92700195 119.89306641 C68.53368055 115.88676138 68.53368055 115.88676138 69.36450195 111.32275391 C67.90895324 108.35883415 65.74839414 107.29812957 62.95825195 105.60009766 C61.96954102 104.98650391 60.98083008 104.37291016 59.9621582 103.74072266 C57.58916993 102.1912935 57.58916993 102.1912935 55.39575195 102.35009766 C53.68864005 97.22876195 53.9583704 91.90023261 53.83325195 86.53759766 C53.77073242 85.36132812 53.70821289 84.18505859 53.64379883 82.97314453 C53.48513861 74.46799552 53.48513861 74.46799552 56.09570312 71.26318359 C58.13384251 69.72090932 60.12316894 68.51217124 62.39575195 67.35009766 C66.50701898 65.11018021 66.50701898 65.11018021 69.18432617 61.48754883 C69.4570577 58.73031492 68.77451871 57.6256272 67.34106445 55.27587891 C66.66624023 54.15149414 66.66624023 54.15149414 65.9777832 53.00439453 C65.49696289 52.23160156 65.01614258 51.45880859 64.52075195 50.66259766 C64.04766602 49.87820312 63.57458008 49.09380859 63.0871582 48.28564453 C61.00783987 44.61750601 61.00783987 44.61750601 58.39575195 41.35009766 C54.32506813 41.59433869 51.35116307 42.21305528 47.95825195 44.41259766 C44.89243342 46.25208877 42.22391496 47.11361293 38.55981445 46.94384766 C34.78858086 45.90914097 31.99761563 43.45255702 28.93481445 41.09619141 C25.78981985 38.93340281 22.78860808 37.95818176 19.1105957 37.05322266 C18.26174805 36.70517578 18.26174805 36.70517578 17.39575195 36.35009766 C15.95227933 32.01967978 16.04153004 27.59704127 15.87817383 23.06689453 C15.81502415 18.74622554 15.81502415 18.74622554 13.39575195 15.35009766 C10.98687533 15.05574806 10.98687533 15.05574806 8.2043457 15.11962891 C7.17760742 15.1215625 6.15086914 15.12349609 5.09301758 15.12548828 C4.01729492 15.13773438 2.94157227 15.14998047 1.83325195 15.16259766 C0.75366211 15.16324219 -0.32592773 15.16388672 -1.43823242 15.16455078 C-6.37268582 14.72345392 -6.37268582 14.72345392 -10.60424805 16.35009766 Z " fill="#030303" transform="translate(119.604248046875,143.64990234375)"/>
<path d="M0 0 C159.06 0 318.12 0 482 0 C482 218 482 218 479 224 C475.69362 227.06085674 472.51990567 227.96699012 468.0625 228.25 C467.051875 228.1675 466.04125 228.085 465 228 C465.15726562 227.43539062 465.31453125 226.87078125 465.4765625 226.2890625 C467.154759 218.95008377 466.24757807 212.80050309 462.64453125 206.20703125 C460.05921423 202.73742528 456.87079889 200.8249424 453 199 C453.66 198.67 454.32 198.34 455 198 C455 132.99 455 67.98 455 1 C304.85 1 154.7 1 0 1 C0 0.67 0 0.34 0 0 Z " fill="#D4ECEE" transform="translate(15,116)"/>
<path d="M0 0 C8.23810474 6.59048379 13.72562954 14.71817837 15.2578125 25.3359375 C15.618051 34.67812267 12.67455027 42.96204561 6.8125 50.25 C-0.92782899 58.38767648 -8.15205765 62.31831942 -19.4375 62.9375 C-29.39168963 62.64532237 -38.23724796 58.7873007 -45.25 51.5625 C-51.52709892 43.24614052 -54.18112553 34.46642419 -53.796875 24.0703125 C-52.35270926 15.01650423 -47.87660971 6.26131582 -40.46875 0.6484375 C-26.48057564 -7.926505 -14.15776564 -7.77289094 0 0 Z " fill="#020303" transform="translate(141.1875,201.75)"/>
<path d="M0 0 C0.73084574 -0.00538554 1.46169149 -0.01077108 2.21468407 -0.01631981 C4.66445777 -0.03063124 7.11369354 -0.02348803 9.56349182 -0.01637268 C11.31949804 -0.0220746 13.07550055 -0.02903817 14.83149719 -0.03717041 C19.60215836 -0.05513678 24.37263594 -0.0539269 29.1433208 -0.04822803 C33.12455959 -0.04514116 37.10576287 -0.05122304 41.08699661 -0.05726677 C50.47844294 -0.07132185 59.86979832 -0.06974257 69.26124573 -0.05836487 C78.95318533 -0.04688266 88.64484826 -0.06095883 98.3367514 -0.08776134 C106.65533252 -0.10990554 114.97382672 -0.11655861 123.29243523 -0.11068493 C128.26190283 -0.10731108 133.23119306 -0.10975878 138.20063591 -0.12693596 C142.87352355 -0.14238261 147.54600078 -0.13847497 152.21887207 -0.11963081 C153.93414798 -0.11593858 155.64945414 -0.11907183 157.36470222 -0.1295166 C159.70601248 -0.14268549 162.04595584 -0.13121697 164.38720703 -0.11352539 C165.69741035 -0.11331611 167.00761366 -0.11310682 168.3575201 -0.1128912 C172.32448779 0.47122589 173.99301191 1.52541961 176.75709534 4.38768005 C177.38209534 7.32518005 177.38209534 7.32518005 176.75709534 10.38768005 C174.11082588 13.76316413 172.62872663 15.22622271 168.36031342 16.01688576 C167.05140892 16.01877089 165.74250443 16.02065601 164.39393616 16.02259827 C163.66223599 16.03039822 162.93053582 16.03819817 162.17666292 16.04623449 C159.72965125 16.06614731 157.28419612 16.05039422 154.83717346 16.03465271 C153.08101494 16.0414292 151.32486353 16.05033251 149.56872559 16.061203 C144.80213185 16.08399929 140.03607915 16.07515868 135.26947594 16.05930758 C130.28165095 16.0466503 125.29387234 16.05838821 120.30604553 16.0662384 C111.92978089 16.07533546 103.55373667 16.06334555 95.17750549 16.03953552 C85.4928542 16.01232416 75.80872921 16.02113828 66.12409067 16.04866755 C57.80970965 16.07135599 49.49548708 16.07455999 41.18108511 16.0614742 C36.21496548 16.05367824 31.24909325 16.05264211 26.2829895 16.06915665 C21.61408408 16.08359828 16.94585731 16.07358543 12.27702522 16.04468536 C10.56337168 16.03807289 8.84966104 16.03997503 7.1360302 16.05099869 C4.79666693 16.0646604 2.45947905 16.04753449 0.12025452 16.02259827 C-1.18864998 16.02071314 -2.49755447 16.01882801 -3.84612274 16.01688576 C-8.1239686 15.22447545 -9.63607894 13.81489443 -12.24290466 10.38768005 C-12.30682848 6.68009856 -12.25001479 4.44033804 -9.62917995 1.70097256 C-6.32214833 -0.11906047 -3.76850592 0.00699106 0 0 Z " fill="#020201" transform="translate(255.24290466308594,276.61231994628906)"/>
<path d="M0 0 C1.10829598 -0.00807831 1.10829598 -0.00807831 2.23898178 -0.01631981 C4.72183154 -0.03065984 7.20415269 -0.023481 9.68702698 -0.01637268 C11.46421235 -0.02207311 13.24139405 -0.0290361 15.01856995 -0.03717041 C19.85120392 -0.05515336 24.68365684 -0.05392379 29.51631427 -0.04822803 C33.54730357 -0.04514351 37.57825772 -0.05122041 41.60924202 -0.05726677 C51.11713352 -0.07132732 60.62493519 -0.06973806 70.13282776 -0.05836487 C79.94916522 -0.04688236 89.76522953 -0.0609581 99.58153099 -0.08776134 C108.00283532 -0.10989661 116.42405377 -0.11656063 124.84538513 -0.11068493 C129.8779921 -0.10730891 134.91042394 -0.10977312 139.94300652 -0.12693596 C144.67497199 -0.14236839 149.40653191 -0.13849088 154.13848114 -0.11963081 C155.87675205 -0.11593461 157.61505275 -0.11908331 159.35329628 -0.1295166 C161.72347004 -0.14265839 164.09228766 -0.13124113 166.46240234 -0.11352539 C167.49824822 -0.1279329 167.49824822 -0.1279329 168.55502027 -0.14263147 C171.8663846 -0.09158176 173.55369698 0.20459343 176.22171116 2.23150539 C177.79469299 4.38768005 177.79469299 4.38768005 178.29469299 7.38768005 C177.66759094 11.15029235 176.81212663 12.09386805 173.79469299 14.38768005 C171.21089058 14.78305671 169.05094613 14.93318401 166.46913147 14.90234375 C165.72941306 14.90928928 164.98969464 14.91623481 164.22756052 14.92339081 C161.74767862 14.94169446 159.26874975 14.93138773 156.78883362 14.92112732 C155.01149783 14.92818408 153.23416806 14.93692807 151.45684814 14.94723511 C146.62835982 14.969765 141.80019871 14.96678117 136.97167778 14.95791364 C132.94311429 14.95280936 128.9146126 14.96009166 124.88605547 14.96738571 C115.38435513 14.98439581 105.88281535 14.98080727 96.38111877 14.96409607 C86.57208353 14.94716768 76.76349307 14.96301665 66.9545064 14.99531895 C58.53741422 15.02198948 50.12046071 15.0292979 41.70333052 15.02080387 C36.67405801 15.01586795 31.64505326 15.01812629 26.61581421 15.03859138 C21.88785455 15.05690908 17.16053637 15.05103797 12.43261147 15.02639198 C10.69595474 15.02137188 8.95924947 15.02490486 7.22263145 15.03754044 C4.85442922 15.05341037 2.4883552 15.03858079 0.12025452 15.01586914 C-0.91456818 15.03362273 -0.91456818 15.03362273 -1.97029638 15.05173498 C-5.61233006 14.98059969 -6.98980672 14.59286781 -9.66706085 12.04373074 C-11.20530701 9.38768005 -11.20530701 9.38768005 -11.14280701 6.26268005 C-9.1512412 0.15521157 -5.96565503 -0.0517525 0 0 Z " fill="#000000" transform="translate(254.20530700683594,307.61231994628906)"/>
<path d="M0 0 C4.29500162 1.64489424 7.72425549 3.46058606 11.4375 6.1875 C15.03223333 8.62048364 17.59045505 9.86545043 21.95703125 9.54296875 C25.26168459 8.66467656 27.98402129 6.96298416 30.82421875 5.09375 C33.5741002 3.71140385 34.97068012 3.33897101 38 4 C39.663725 6.0811798 40.86610716 7.88118842 42.125 10.1875 C42.45886719 10.76564453 42.79273438 11.34378906 43.13671875 11.93945312 C44.10442988 13.61871655 45.05253496 15.3092308 46 17 C46.59554687 17.88300781 47.19109375 18.76601562 47.8046875 19.67578125 C49 22 49 22 48.953125 24.125 C47.66829359 26.65253719 46.16051492 27.5313419 43.75 29 C38.61785397 32.15836056 38.61785397 32.15836056 34 36 C33.2991451 38.8365159 33.2991451 38.8365159 33.4765625 41.97265625 C33.48816406 43.11927734 33.49976563 44.26589844 33.51171875 45.44726562 C33.54910156 46.64029297 33.58648437 47.83332031 33.625 49.0625 C33.63917969 50.25939453 33.65335938 51.45628906 33.66796875 52.68945312 C33.68455152 58.94601277 33.68455152 58.94601277 35 65 C36.64383518 65.72112977 38.3154175 66.37999674 40 67 C41.63021117 68.00041576 43.23566888 69.04239953 44.8125 70.125 C45.60269531 70.66382813 46.39289063 71.20265625 47.20703125 71.7578125 C47.79871094 72.16773438 48.39039063 72.57765625 49 73 C48.45204552 77.97004324 46.13965151 81.52937292 43.5625 85.6875 C42.95051758 86.70166992 42.95051758 86.70166992 42.32617188 87.73632812 C40.70800884 90.38927078 39.20518618 92.79481382 37 95 C33.33293459 94.89214514 31.10989417 93.45848772 28.1875 91.4375 C24.89735552 89.34041726 22.18062867 88.12836517 18.14453125 88.3671875 C14.36117465 89.48358781 11.46537066 91.86240688 8.39453125 94.2734375 C5.99558072 96.0031865 3.77926402 97.02256789 1 98 C2.31417887 94.32288868 3.93246936 91.5819022 6.3125 88.5 C16.19901165 74.584889 19.80765139 56.1159822 17.49609375 39.34375 C15.29791914 26.98372817 11.00900646 12.92123715 1.81640625 3.84375 C0 2 0 2 0 0 Z " fill="#8B9AA6" transform="translate(140,181)"/>
<path d="M0 0 C1.20422104 0.00233139 2.40844208 0.00466278 3.64915466 0.00706482 C6.19187516 0.01679836 8.73457408 0.03857603 11.27709961 0.0715332 C15.17268918 0.12095541 19.0670158 0.13301534 22.96289062 0.13867188 C25.43360721 0.15275742 27.90431281 0.16896165 30.375 0.1875 C32.12509117 0.19554405 32.12509117 0.19554405 33.91053772 0.20375061 C35.53758888 0.2277317 35.53758888 0.2277317 37.19750977 0.25219727 C38.6271682 0.26815697 38.6271682 0.26815697 40.08570862 0.28443909 C42.77225577 0.57493911 44.36752441 1.08439448 46.62109375 2.55859375 C48.62109375 5.55859375 48.62109375 5.55859375 48.49609375 9.05859375 C47.62109375 12.55859375 47.62109375 12.55859375 45.87792969 14.2590332 C43.22042882 15.78930983 41.68363167 15.90729871 38.63671875 15.8515625 C37.70214844 15.84189453 36.76757812 15.83222656 35.8046875 15.82226562 C34.83660156 15.79712891 33.86851562 15.77199219 32.87109375 15.74609375 C31.88753906 15.73255859 30.90398437 15.71902344 29.890625 15.70507812 C27.4668896 15.66978101 25.0442723 15.62047429 22.62109375 15.55859375 C22.63774834 16.74796539 22.63774834 16.74796539 22.65473938 17.96136475 C22.75494766 25.4358651 22.83106098 32.91003956 22.88015461 40.38503647 C22.90624301 44.22801124 22.94162523 48.07043075 22.99829102 51.91308594 C23.05264086 55.62192484 23.08251999 59.33022993 23.09547997 63.03943634 C23.10471479 64.45408788 23.12274902 65.86871036 23.14974403 67.28313446 C23.18606203 69.26496354 23.18813635 71.24733045 23.1887207 73.22949219 C23.20537529 74.92159821 23.20537529 74.92159821 23.22236633 76.64788818 C22.62109375 79.55859375 22.62109375 79.55859375 20.24577332 81.9229126 C17.28944715 83.76527349 16.02489962 84.25681034 12.62109375 83.55859375 C10.37676393 81.6883189 8.92666173 80.16972971 7.62109375 77.55859375 C7.52972715 75.5875283 7.50357407 73.61331459 7.50756836 71.64013672 C7.50764389 70.39900116 7.50771942 69.1578656 7.50779724 67.87911987 C7.51290425 66.51967326 7.51812025 65.16022706 7.5234375 63.80078125 C7.52530233 62.41358491 7.52672593 61.02638791 7.52772522 59.63919067 C7.53154527 55.98624863 7.5413712 52.33334627 7.5524292 48.68041992 C7.56265431 44.95361874 7.5672252 41.22681116 7.57226562 37.5 C7.58299392 30.18617981 7.60006421 22.87239234 7.62109375 15.55859375 C7.00588867 15.58477783 6.39068359 15.61096191 5.75683594 15.63793945 C2.96184967 15.74205296 0.16727117 15.80696124 -2.62890625 15.87109375 C-3.59699219 15.91298828 -4.56507813 15.95488281 -5.5625 15.99804688 C-12.75034022 16.12197515 -12.75034022 16.12197515 -16.015625 13.1953125 C-17.5660988 10.19654511 -18.1222506 8.86234641 -17.37890625 5.55859375 C-12.97366363 -0.99706667 -7.36305173 -0.12347993 0 0 Z " fill="#060503" transform="translate(260.37890625,180.44140625)"/>
<path d="M0 0 C2.5 1.5625 2.5 1.5625 4 4 C4.11029321 8.93143081 3.05902537 11.32924353 -0.22174072 15.00382996 C-1.67169097 16.49848417 -3.13848851 17.97690586 -4.61816406 19.44213867 C-5.81601028 20.66298409 -5.81601028 20.66298409 -7.03805542 21.90849304 C-9.68188899 24.59401487 -12.34742042 27.25667425 -15.015625 29.91796875 C-16.86701578 31.78102428 -18.71773454 33.64474785 -20.56781006 35.5091095 C-24.45056753 39.41649056 -28.34682036 43.31004988 -32.25 47.19702148 C-36.7427453 51.67169376 -41.20735954 56.17307944 -45.65894151 60.6886732 C-49.9599895 65.04924936 -54.28607223 69.3841356 -58.62224579 73.70977211 C-60.45519185 75.54425254 -62.28110977 77.38578457 -64.099617 79.23457909 C-82.39158026 97.79342749 -82.39158026 97.79342749 -94 99 C-95.49855469 94.50433593 -94.69784633 91.36526754 -93 87 C-81.18697208 71.04780185 -64.76723251 57.38565184 -50.80761719 43.34765625 C-47.17287412 39.69049822 -43.54817945 36.02379232 -39.93164062 32.34863281 C-35.54706158 27.89316422 -31.14570626 23.4549488 -26.73170853 19.0286293 C-25.05675259 17.34326073 -23.38782372 15.65187996 -21.7251091 13.95443344 C-19.40620361 11.5895426 -17.06638046 9.24747279 -14.72021484 6.90966797 C-14.03951431 6.20537155 -13.35881378 5.50107513 -12.65748596 4.7754364 C-8.52400061 0.71293352 -6.07860809 -1.01416319 0 0 Z " fill="#D7AFEC" transform="translate(463,328)"/>
<path d="M0 0 C3.54138618 -0.11681812 7.0822724 -0.187455 10.625 -0.25 C11.62402344 -0.28351562 12.62304688 -0.31703125 13.65234375 -0.3515625 C19.60096751 -0.43035222 23.42989499 -0.23852011 28 4 C35.56345704 16.60576173 31 33.29928195 31 48 C-128.06 48 -287.12 48 -451 48 C-451 47.67 -451 47.34 -451 47 C-300.85 47 -150.7 47 4 47 C4.90037614 22.86680206 4.90037614 22.86680206 0 0 Z " fill="#7A8691" transform="translate(466,54)"/>
<path d="M0 0 C0.06946198 9.33578439 0.12279178 18.67148004 0.15543652 28.00746632 C0.17110311 32.34239125 0.19235934 36.6771396 0.22631836 41.01196289 C0.25887664 45.19408088 0.27684553 49.37602885 0.28463173 53.55826378 C0.29018162 55.15510422 0.30101906 56.75193519 0.31719017 58.34870338 C0.33891808 60.58269094 0.34196896 62.81597288 0.34057617 65.05004883 C0.34723801 66.32245926 0.35389984 67.59486969 0.36076355 68.90583801 C0 72 0 72 -1.35656738 73.91308594 C-3.82412533 75.54505028 -5.83119543 75.33759601 -8.76171875 75.29296875 C-9.87998047 75.28330078 -10.99824219 75.27363281 -12.15039062 75.26367188 C-13.90125977 75.2259668 -13.90125977 75.2259668 -15.6875 75.1875 C-16.86634766 75.17396484 -18.04519531 75.16042969 -19.25976562 75.14648438 C-22.17337133 75.11109645 -25.08674264 75.05728911 -28 75 C-27.67 70.71 -27.34 66.42 -27 62 C-25.5975 61.87625 -24.195 61.7525 -22.75 61.625 C-19.41667013 61.33088266 -16.79606625 60.91570836 -14 59 C-13.19255435 57.15958395 -13.19255435 57.15958395 -13.0625 55.0625 C-12.97097656 54.37285156 -12.87945312 53.68320312 -12.78515625 52.97265625 C-12.84992419 50.95650489 -12.84992419 50.95650489 -14.07128906 49.40869141 C-16.9853241 47.28033923 -19.5022338 47.5611789 -23.07421875 47.48828125 C-23.7580513 47.47033005 -24.44188385 47.45237885 -25.1464386 47.43388367 C-27.32673 47.37977925 -29.50680256 47.3458866 -31.6875 47.3125 C-33.16734817 47.2793268 -34.64716745 47.24483713 -36.12695312 47.20898438 C-39.75109169 47.12405476 -43.37530652 47.05724365 -47 47 C-43.83710202 40.23014746 -37.61109736 34.97930631 -31.8125 30.375 C-29.53595386 28.45258326 -27.80786514 26.68856438 -25.90234375 24.4375 C-21.72877026 19.61784048 -17.26761949 15.12040169 -12.75 10.625 C-11.94820313 9.81933594 -11.14640625 9.01367188 -10.3203125 8.18359375 C-9.16402344 7.02923828 -9.16402344 7.02923828 -7.984375 5.8515625 C-7.29053711 5.15885254 -6.59669922 4.46614258 -5.88183594 3.75244141 C-1.85232655 0 -1.85232655 0 0 0 Z " fill="#F9CD5A" transform="translate(444,383)"/>
<path d="M0 0 C4.71188833 2.65630358 7.49191399 6.03855455 10.0625 10.8125 C11.71522169 16.9726445 10.72178202 21.67620197 8.0234375 27.29296875 C5.36083679 31.64623924 1.42424013 34.40105216 -3.25 36.375 C-9.14782898 37.34094364 -14.0570727 36.99778185 -19.1875 33.8125 C-24.12571715 29.998214 -26.76030405 26.78874581 -27.65625 20.54296875 C-27.96272372 14.45180363 -27.39008685 9.9701897 -23.75 4.99609375 C-17.40539492 -1.86070601 -8.50329985 -3.88860582 0 0 Z " fill="#E5F4F5" transform="translate(130.25,212.625)"/>
<path d="M0 0 C1.47339088 0.00349709 1.47339088 0.00349709 2.97654724 0.00706482 C5.04849967 0.0167894 7.12042601 0.03854671 9.19213867 0.0715332 C12.3635188 0.12097566 15.5333472 0.13301729 18.70507812 0.13867188 C20.72006859 0.15275726 22.73504559 0.16896144 24.75 0.1875 C26.17198448 0.19554405 26.17198448 0.19554405 27.62269592 0.20375061 C28.50718918 0.21973801 29.39168243 0.2357254 30.30297852 0.25219727 C31.46616356 0.26815697 31.46616356 0.26815697 32.65284729 0.28443909 C35.12823587 0.59924388 36.7034748 1.2243649 38.80859375 2.55859375 C40.80859375 5.55859375 40.80859375 5.55859375 40.62109375 9.05859375 C39.80393624 12.57865688 39.57819109 13.48130477 36.80859375 15.55859375 C34.65248108 15.9462738 34.65248108 15.9462738 32.12524414 15.96264648 C31.17738541 15.97533066 30.22952667 15.98801483 29.25294495 16.00108337 C28.23103561 15.99814774 27.20912628 15.9952121 26.15625 15.9921875 C24.57873207 16.00005028 24.57873207 16.00005028 22.96934509 16.0080719 C20.7443022 16.01449786 18.51922536 16.01314772 16.29418945 16.00463867 C12.8875684 15.99613487 9.48262691 16.02487364 6.07617188 16.05664062 C3.91536509 16.05825283 1.75455532 16.05767474 -0.40625 16.0546875 C-1.4261351 16.06592148 -2.4460202 16.07715546 -3.49681091 16.08872986 C-10.53328572 16.01932074 -10.53328572 16.01932074 -13.83032227 13.71118164 C-15.73307687 10.7019283 -15.83366288 9.0553243 -15.19140625 5.55859375 C-10.93380723 -0.39985448 -6.75305458 -0.13943724 0 0 Z " fill="#060603" transform="translate(336.19140625,245.44140625)"/>
<path d="M0 0 C0.73573242 -0.00241196 1.47146484 -0.00482391 2.22949219 -0.00730896 C3.77935191 -0.0063329 5.32924753 0.00700352 6.87890625 0.03198242 C9.24339913 0.06631042 11.60415414 0.0526294 13.96875 0.03320312 C15.47918248 0.04010204 16.98960537 0.04977486 18.5 0.0625 C19.5533252 0.0550602 19.5533252 0.0550602 20.62792969 0.04747009 C24.14851521 0.13141176 26.17842205 0.58481589 29.19921875 2.44555664 C31.25 4.62890625 31.25 4.62890625 31.8125 8.12890625 C31.14937063 12.25504453 30.57818857 13.18665729 27.25 15.62890625 C24.40896168 16.02683181 21.96317706 16.19062376 19.125 16.16015625 C18.34108887 16.16398315 17.55717773 16.16781006 16.74951172 16.17175293 C15.09536451 16.17446978 13.44117417 16.16712435 11.78710938 16.15039062 C9.25813838 16.12897517 6.73200786 16.15019722 4.203125 16.17578125 C2.59374374 16.17313793 0.98436425 16.16801286 -0.625 16.16015625 C-1.3792627 16.16825317 -2.13352539 16.1763501 -2.91064453 16.18469238 C-6.40466835 16.12242698 -8.3891461 15.89883409 -11.22265625 13.77929688 C-12.75 11.62890625 -12.75 11.62890625 -13.3125 8.69140625 C-11.96825625 1.37274583 -6.66579148 -0.12585352 0 0 Z " fill="#030304" transform="translate(58.75,69.37109375)"/>
<path d="M0 0 C3.79160297 -0.05786668 7.58309311 -0.09355054 11.375 -0.125 C12.45523438 -0.14175781 13.53546875 -0.15851563 14.6484375 -0.17578125 C15.6796875 -0.18222656 16.7109375 -0.18867188 17.7734375 -0.1953125 C19.20308838 -0.21102295 19.20308838 -0.21102295 20.66162109 -0.22705078 C23 0 23 0 25 2 C25.14497985 4.58064129 25.18677545 7.04943884 25.125 9.625 C25.11597656 10.33140625 25.10695312 11.0378125 25.09765625 11.765625 C25.07407603 13.51056098 25.03820461 15.25532295 25 17 C24.37996094 16.5875 23.75992188 16.175 23.12109375 15.75 C15.32435505 10.66566385 7.25405982 6.2885466 -1 2 C-0.67 1.34 -0.34 0.68 0 0 Z " fill="#8C9BA7" transform="translate(110,159)"/>
<path d="M0 0 C0.05383848 2.45862401 0.09359038 4.9160755 0.125 7.375 C0.14175781 8.07367188 0.15851563 8.77234375 0.17578125 9.4921875 C0.19344267 11.32897486 0.10303261 13.16601963 0 15 C-2 17 -2 17 -4.33837891 17.22705078 C-5.29147949 17.21657715 -6.24458008 17.20610352 -7.2265625 17.1953125 C-8.7734375 17.18564453 -8.7734375 17.18564453 -10.3515625 17.17578125 C-11.43179688 17.15902344 -12.51203125 17.14226562 -13.625 17.125 C-14.71296875 17.11597656 -15.8009375 17.10695313 -16.921875 17.09765625 C-19.61480152 17.07403409 -22.30729255 17.04109556 -25 17 C-25 16.01 -25 15.02 -25 14 C-24.46632813 13.78085937 -23.93265625 13.56171875 -23.3828125 13.3359375 C-17.61328586 10.88039502 -5.20912332 0 0 0 Z " fill="#8C9BA7" transform="translate(135,284)"/>
<path d="M0 0 C2.5881216 2.25417042 2.94242643 3.60520979 3.4375 7 C3 10 3 10 1.4375 12.375 C-1.95870843 14.63913895 -4.00099302 14.64269755 -8 14 C-10.5 11.9375 -10.5 11.9375 -12 9 C-12 5.19715329 -11.7968187 2.98069994 -9.375 0 C-5.88418213 -1.46981805 -3.60851044 -0.98413921 0 0 Z " fill="#060707" transform="translate(463,71)"/>
<path d="M0 0 C4.36689189 1.42398649 4.36689189 1.42398649 5.875 3.9375 C6.37530235 7.86844707 6.4746142 10.0380787 4.25 13.375 C1.15814769 15.40911336 -0.48867425 15.54355429 -4.125 14.9375 C-6.5 13.375 -6.5 13.375 -8.125 10.9375 C-8.6875 7.4375 -8.6875 7.4375 -8.125 3.9375 C-5.45043116 0.79094842 -4.15592269 -0.08311845 0 0 Z " fill="#030404" transform="translate(431.125,70.0625)"/>
<path d="M0 0 C0 5.94 0 11.88 0 18 C-5.94 18 -11.88 18 -18 18 C-14.2698595 13.46334263 -10.32946434 9.22058878 -6.1875 5.0625 C-5.69531982 4.56580811 -5.20313965 4.06911621 -4.69604492 3.55737305 C-1.12375366 0 -1.12375366 0 0 0 Z " fill="#FFE177" transform="translate(417,411)"/>
</svg>
